<mxfile host="app.diagrams.net" modified="2023-09-30T16:59:05.044Z" agent="Mozilla/5.0 (Windows NT 10.0; Win64; x64) AppleWebKit/537.36 (KHTML, like Gecko) Chrome/116.0.0.0 Safari/537.36 OPR/102.0.0.0" etag="O-tR8MWDLFAJQCuM9AoK" version="22.0.0" type="github">
  <diagram name="Страница — 1" id="rC-B-IihbgTvqLYvBs3h">
    <mxGraphModel dx="1519" dy="861" grid="0" gridSize="10" guides="0" tooltips="1" connect="0" arrows="0" fold="1" page="0" pageScale="1" pageWidth="827" pageHeight="1169" math="0" shadow="0">
      <root>
        <mxCell id="0" />
        <mxCell id="1" parent="0" />
        <mxCell id="mcsAyT45D13i0M1cORAj-3" value="Покупка" style="rounded=0;whiteSpace=wrap;html=1;" vertex="1" parent="1">
          <mxGeometry x="1300" y="460" width="120" height="60" as="geometry" />
        </mxCell>
        <mxCell id="mcsAyT45D13i0M1cORAj-4" value="Товар" style="rounded=0;whiteSpace=wrap;html=1;" vertex="1" parent="1">
          <mxGeometry x="760" y="460" width="120" height="60" as="geometry" />
        </mxCell>
        <mxCell id="mcsAyT45D13i0M1cORAj-5" value="Знижка" style="rounded=0;whiteSpace=wrap;html=1;" vertex="1" parent="1">
          <mxGeometry x="240" y="460" width="120" height="60" as="geometry" />
        </mxCell>
        <mxCell id="mcsAyT45D13i0M1cORAj-6" value="Клієнт" style="rounded=0;whiteSpace=wrap;html=1;" vertex="1" parent="1">
          <mxGeometry x="1300" y="220" width="120" height="60" as="geometry" />
        </mxCell>
        <mxCell id="mcsAyT45D13i0M1cORAj-7" value="Назва" style="ellipse;whiteSpace=wrap;html=1;" vertex="1" parent="1">
          <mxGeometry x="510" y="590" width="100" height="45" as="geometry" />
        </mxCell>
        <mxCell id="mcsAyT45D13i0M1cORAj-8" value="Бренд" style="ellipse;whiteSpace=wrap;html=1;" vertex="1" parent="1">
          <mxGeometry x="630" y="590" width="100" height="45" as="geometry" />
        </mxCell>
        <mxCell id="mcsAyT45D13i0M1cORAj-9" value="Кількість на складі" style="ellipse;whiteSpace=wrap;html=1;" vertex="1" parent="1">
          <mxGeometry x="890" y="590" width="100" height="45" as="geometry" />
        </mxCell>
        <mxCell id="mcsAyT45D13i0M1cORAj-10" value="Рейтинг" style="ellipse;whiteSpace=wrap;html=1;" vertex="1" parent="1">
          <mxGeometry x="1020" y="590" width="100" height="45" as="geometry" />
        </mxCell>
        <mxCell id="mcsAyT45D13i0M1cORAj-11" value="Ціна" style="ellipse;whiteSpace=wrap;html=1;" vertex="1" parent="1">
          <mxGeometry x="760" y="590" width="100" height="45" as="geometry" />
        </mxCell>
        <mxCell id="mcsAyT45D13i0M1cORAj-14" value="" style="endArrow=none;html=1;rounded=0;exitX=0.5;exitY=0;exitDx=0;exitDy=0;entryX=0.5;entryY=1;entryDx=0;entryDy=0;" edge="1" parent="1" source="mcsAyT45D13i0M1cORAj-7" target="mcsAyT45D13i0M1cORAj-4">
          <mxGeometry width="50" height="50" relative="1" as="geometry">
            <mxPoint x="790" y="580" as="sourcePoint" />
            <mxPoint x="840" y="530" as="targetPoint" />
          </mxGeometry>
        </mxCell>
        <mxCell id="mcsAyT45D13i0M1cORAj-15" value="" style="endArrow=none;html=1;rounded=0;entryX=0.5;entryY=1;entryDx=0;entryDy=0;exitX=0.5;exitY=0;exitDx=0;exitDy=0;" edge="1" parent="1" source="mcsAyT45D13i0M1cORAj-8" target="mcsAyT45D13i0M1cORAj-4">
          <mxGeometry width="50" height="50" relative="1" as="geometry">
            <mxPoint x="390" y="580" as="sourcePoint" />
            <mxPoint x="440" y="530" as="targetPoint" />
          </mxGeometry>
        </mxCell>
        <mxCell id="mcsAyT45D13i0M1cORAj-16" value="" style="endArrow=none;html=1;rounded=0;exitX=0.5;exitY=0;exitDx=0;exitDy=0;entryX=0.5;entryY=1;entryDx=0;entryDy=0;" edge="1" parent="1" source="mcsAyT45D13i0M1cORAj-11" target="mcsAyT45D13i0M1cORAj-4">
          <mxGeometry width="50" height="50" relative="1" as="geometry">
            <mxPoint x="390" y="580" as="sourcePoint" />
            <mxPoint x="810" y="520" as="targetPoint" />
          </mxGeometry>
        </mxCell>
        <mxCell id="mcsAyT45D13i0M1cORAj-17" value="" style="endArrow=none;html=1;rounded=0;entryX=0.5;entryY=1;entryDx=0;entryDy=0;exitX=0.5;exitY=0;exitDx=0;exitDy=0;" edge="1" parent="1" source="mcsAyT45D13i0M1cORAj-9" target="mcsAyT45D13i0M1cORAj-4">
          <mxGeometry width="50" height="50" relative="1" as="geometry">
            <mxPoint x="390" y="580" as="sourcePoint" />
            <mxPoint x="440" y="530" as="targetPoint" />
          </mxGeometry>
        </mxCell>
        <mxCell id="mcsAyT45D13i0M1cORAj-18" value="" style="endArrow=none;html=1;rounded=0;entryX=0.5;entryY=1;entryDx=0;entryDy=0;exitX=0.5;exitY=0;exitDx=0;exitDy=0;" edge="1" parent="1" source="mcsAyT45D13i0M1cORAj-10" target="mcsAyT45D13i0M1cORAj-4">
          <mxGeometry width="50" height="50" relative="1" as="geometry">
            <mxPoint x="390" y="580" as="sourcePoint" />
            <mxPoint x="440" y="530" as="targetPoint" />
          </mxGeometry>
        </mxCell>
        <mxCell id="mcsAyT45D13i0M1cORAj-19" value="Ім&#39;я&amp;nbsp;" style="ellipse;whiteSpace=wrap;html=1;" vertex="1" parent="1">
          <mxGeometry x="1540" y="110" width="100" height="45" as="geometry" />
        </mxCell>
        <mxCell id="mcsAyT45D13i0M1cORAj-20" value="адреса&amp;nbsp;" style="ellipse;whiteSpace=wrap;html=1;" vertex="1" parent="1">
          <mxGeometry x="1141" y="110" width="100" height="45" as="geometry" />
        </mxCell>
        <mxCell id="mcsAyT45D13i0M1cORAj-21" value="контактний номер&amp;nbsp;" style="ellipse;whiteSpace=wrap;html=1;" vertex="1" parent="1">
          <mxGeometry x="1280" y="110" width="100" height="45" as="geometry" />
        </mxCell>
        <mxCell id="mcsAyT45D13i0M1cORAj-22" value="кількість&amp;nbsp; покупок&amp;nbsp;" style="ellipse;whiteSpace=wrap;html=1;" vertex="1" parent="1">
          <mxGeometry x="1410" y="110" width="100" height="45" as="geometry" />
        </mxCell>
        <mxCell id="mcsAyT45D13i0M1cORAj-23" value="" style="endArrow=none;html=1;rounded=0;entryX=0.5;entryY=0;entryDx=0;entryDy=0;exitX=0.5;exitY=1;exitDx=0;exitDy=0;" edge="1" parent="1" source="mcsAyT45D13i0M1cORAj-19" target="mcsAyT45D13i0M1cORAj-6">
          <mxGeometry width="50" height="50" relative="1" as="geometry">
            <mxPoint x="390" y="510" as="sourcePoint" />
            <mxPoint x="440" y="460" as="targetPoint" />
          </mxGeometry>
        </mxCell>
        <mxCell id="mcsAyT45D13i0M1cORAj-24" value="" style="endArrow=none;html=1;rounded=0;entryX=0.5;entryY=0;entryDx=0;entryDy=0;exitX=0.5;exitY=1;exitDx=0;exitDy=0;" edge="1" parent="1" source="mcsAyT45D13i0M1cORAj-20" target="mcsAyT45D13i0M1cORAj-6">
          <mxGeometry width="50" height="50" relative="1" as="geometry">
            <mxPoint x="390" y="510" as="sourcePoint" />
            <mxPoint x="440" y="460" as="targetPoint" />
          </mxGeometry>
        </mxCell>
        <mxCell id="mcsAyT45D13i0M1cORAj-25" value="" style="endArrow=none;html=1;rounded=0;entryX=0.5;entryY=0;entryDx=0;entryDy=0;exitX=0.5;exitY=1;exitDx=0;exitDy=0;" edge="1" parent="1" source="mcsAyT45D13i0M1cORAj-21" target="mcsAyT45D13i0M1cORAj-6">
          <mxGeometry width="50" height="50" relative="1" as="geometry">
            <mxPoint x="390" y="510" as="sourcePoint" />
            <mxPoint x="440" y="460" as="targetPoint" />
          </mxGeometry>
        </mxCell>
        <mxCell id="mcsAyT45D13i0M1cORAj-26" value="" style="endArrow=none;html=1;rounded=0;entryX=0.5;entryY=0;entryDx=0;entryDy=0;exitX=0.5;exitY=1;exitDx=0;exitDy=0;" edge="1" parent="1" source="mcsAyT45D13i0M1cORAj-22" target="mcsAyT45D13i0M1cORAj-6">
          <mxGeometry width="50" height="50" relative="1" as="geometry">
            <mxPoint x="390" y="510" as="sourcePoint" />
            <mxPoint x="440" y="460" as="targetPoint" />
          </mxGeometry>
        </mxCell>
        <mxCell id="mcsAyT45D13i0M1cORAj-27" value="величина&amp;nbsp; знижки&amp;nbsp;" style="ellipse;whiteSpace=wrap;html=1;" vertex="1" parent="1">
          <mxGeometry x="190" y="570" width="100" height="45" as="geometry" />
        </mxCell>
        <mxCell id="mcsAyT45D13i0M1cORAj-28" value="час дії&amp;nbsp;" style="ellipse;whiteSpace=wrap;html=1;" vertex="1" parent="1">
          <mxGeometry x="320" y="570" width="100" height="45" as="geometry" />
        </mxCell>
        <mxCell id="mcsAyT45D13i0M1cORAj-29" value="" style="endArrow=none;html=1;rounded=0;entryX=0.5;entryY=1;entryDx=0;entryDy=0;exitX=0.5;exitY=0;exitDx=0;exitDy=0;" edge="1" parent="1" source="mcsAyT45D13i0M1cORAj-27" target="mcsAyT45D13i0M1cORAj-5">
          <mxGeometry width="50" height="50" relative="1" as="geometry">
            <mxPoint x="390" y="520" as="sourcePoint" />
            <mxPoint x="440" y="470" as="targetPoint" />
          </mxGeometry>
        </mxCell>
        <mxCell id="mcsAyT45D13i0M1cORAj-30" value="" style="endArrow=none;html=1;rounded=0;entryX=0.5;entryY=1;entryDx=0;entryDy=0;exitX=0.5;exitY=0;exitDx=0;exitDy=0;" edge="1" parent="1" source="mcsAyT45D13i0M1cORAj-28" target="mcsAyT45D13i0M1cORAj-5">
          <mxGeometry width="50" height="50" relative="1" as="geometry">
            <mxPoint x="390" y="520" as="sourcePoint" />
            <mxPoint x="440" y="470" as="targetPoint" />
          </mxGeometry>
        </mxCell>
        <mxCell id="mcsAyT45D13i0M1cORAj-31" value="кількість&amp;nbsp; &amp;nbsp;товарів&amp;nbsp;" style="ellipse;whiteSpace=wrap;html=1;" vertex="1" parent="1">
          <mxGeometry x="1310" y="590" width="100" height="45" as="geometry" />
        </mxCell>
        <mxCell id="mcsAyT45D13i0M1cORAj-32" value="загальна вартість&amp;nbsp;" style="ellipse;whiteSpace=wrap;html=1;" vertex="1" parent="1">
          <mxGeometry x="1430" y="590" width="100" height="45" as="geometry" />
        </mxCell>
        <mxCell id="mcsAyT45D13i0M1cORAj-33" value="дата&amp;nbsp;" style="ellipse;whiteSpace=wrap;html=1;" vertex="1" parent="1">
          <mxGeometry x="1180" y="585" width="100" height="45" as="geometry" />
        </mxCell>
        <mxCell id="mcsAyT45D13i0M1cORAj-34" value="" style="endArrow=none;html=1;rounded=0;entryX=0.5;entryY=1;entryDx=0;entryDy=0;exitX=0.5;exitY=0;exitDx=0;exitDy=0;" edge="1" parent="1" source="mcsAyT45D13i0M1cORAj-33" target="mcsAyT45D13i0M1cORAj-3">
          <mxGeometry width="50" height="50" relative="1" as="geometry">
            <mxPoint x="390" y="530" as="sourcePoint" />
            <mxPoint x="440" y="480" as="targetPoint" />
          </mxGeometry>
        </mxCell>
        <mxCell id="mcsAyT45D13i0M1cORAj-35" value="" style="endArrow=none;html=1;rounded=0;entryX=0.5;entryY=1;entryDx=0;entryDy=0;exitX=0.5;exitY=0;exitDx=0;exitDy=0;" edge="1" parent="1" source="mcsAyT45D13i0M1cORAj-31" target="mcsAyT45D13i0M1cORAj-3">
          <mxGeometry width="50" height="50" relative="1" as="geometry">
            <mxPoint x="390" y="530" as="sourcePoint" />
            <mxPoint x="440" y="480" as="targetPoint" />
          </mxGeometry>
        </mxCell>
        <mxCell id="mcsAyT45D13i0M1cORAj-36" value="" style="endArrow=none;html=1;rounded=0;entryX=0.5;entryY=1;entryDx=0;entryDy=0;exitX=0.5;exitY=0;exitDx=0;exitDy=0;" edge="1" parent="1" source="mcsAyT45D13i0M1cORAj-32" target="mcsAyT45D13i0M1cORAj-3">
          <mxGeometry width="50" height="50" relative="1" as="geometry">
            <mxPoint x="390" y="530" as="sourcePoint" />
            <mxPoint x="440" y="480" as="targetPoint" />
          </mxGeometry>
        </mxCell>
        <mxCell id="mcsAyT45D13i0M1cORAj-37" value="Має Знижку" style="rhombus;whiteSpace=wrap;html=1;" vertex="1" parent="1">
          <mxGeometry x="480" y="450" width="140" height="80" as="geometry" />
        </mxCell>
        <mxCell id="mcsAyT45D13i0M1cORAj-38" value="" style="endArrow=none;html=1;rounded=0;exitX=1;exitY=0.5;exitDx=0;exitDy=0;entryX=0;entryY=0.5;entryDx=0;entryDy=0;" edge="1" parent="1" source="mcsAyT45D13i0M1cORAj-5" target="mcsAyT45D13i0M1cORAj-37">
          <mxGeometry width="50" height="50" relative="1" as="geometry">
            <mxPoint x="390" y="530" as="sourcePoint" />
            <mxPoint x="440" y="480" as="targetPoint" />
          </mxGeometry>
        </mxCell>
        <mxCell id="mcsAyT45D13i0M1cORAj-39" value="" style="endArrow=none;html=1;rounded=0;entryX=1;entryY=0.5;entryDx=0;entryDy=0;exitX=0;exitY=0.5;exitDx=0;exitDy=0;" edge="1" parent="1" source="mcsAyT45D13i0M1cORAj-4" target="mcsAyT45D13i0M1cORAj-37">
          <mxGeometry width="50" height="50" relative="1" as="geometry">
            <mxPoint x="390" y="530" as="sourcePoint" />
            <mxPoint x="440" y="480" as="targetPoint" />
          </mxGeometry>
        </mxCell>
        <mxCell id="mcsAyT45D13i0M1cORAj-40" value="Б:Б" style="text;html=1;strokeColor=none;fillColor=none;align=center;verticalAlign=middle;whiteSpace=wrap;rounded=0;" vertex="1" parent="1">
          <mxGeometry x="384" y="460" width="60" height="30" as="geometry" />
        </mxCell>
        <mxCell id="mcsAyT45D13i0M1cORAj-42" value="Б:Б" style="text;html=1;strokeColor=none;fillColor=none;align=center;verticalAlign=middle;whiteSpace=wrap;rounded=0;" vertex="1" parent="1">
          <mxGeometry x="650" y="460" width="60" height="30" as="geometry" />
        </mxCell>
        <mxCell id="mcsAyT45D13i0M1cORAj-44" value="Пов&#39;язано з Товаром" style="rhombus;whiteSpace=wrap;html=1;" vertex="1" parent="1">
          <mxGeometry x="1010" y="450" width="160" height="80" as="geometry" />
        </mxCell>
        <mxCell id="mcsAyT45D13i0M1cORAj-46" value="" style="endArrow=none;html=1;rounded=0;exitX=1;exitY=0.5;exitDx=0;exitDy=0;entryX=0;entryY=0.5;entryDx=0;entryDy=0;" edge="1" parent="1" source="mcsAyT45D13i0M1cORAj-44" target="mcsAyT45D13i0M1cORAj-3">
          <mxGeometry width="50" height="50" relative="1" as="geometry">
            <mxPoint x="1040" y="550" as="sourcePoint" />
            <mxPoint x="1090" y="500" as="targetPoint" />
          </mxGeometry>
        </mxCell>
        <mxCell id="mcsAyT45D13i0M1cORAj-47" value="" style="endArrow=none;html=1;rounded=0;exitX=1;exitY=0.5;exitDx=0;exitDy=0;entryX=0;entryY=0.5;entryDx=0;entryDy=0;" edge="1" parent="1" source="mcsAyT45D13i0M1cORAj-4" target="mcsAyT45D13i0M1cORAj-44">
          <mxGeometry width="50" height="50" relative="1" as="geometry">
            <mxPoint x="1040" y="550" as="sourcePoint" />
            <mxPoint x="1090" y="500" as="targetPoint" />
          </mxGeometry>
        </mxCell>
        <mxCell id="mcsAyT45D13i0M1cORAj-48" value="Б:1" style="text;html=1;strokeColor=none;fillColor=none;align=center;verticalAlign=middle;whiteSpace=wrap;rounded=0;" vertex="1" parent="1">
          <mxGeometry x="1210" y="460" width="60" height="30" as="geometry" />
        </mxCell>
        <mxCell id="mcsAyT45D13i0M1cORAj-49" value="1:Б" style="text;html=1;strokeColor=none;fillColor=none;align=center;verticalAlign=middle;whiteSpace=wrap;rounded=0;" vertex="1" parent="1">
          <mxGeometry x="920" y="460" width="60" height="30" as="geometry" />
        </mxCell>
        <mxCell id="mcsAyT45D13i0M1cORAj-51" value="Пов&#39;язано з Клієнтом" style="rhombus;whiteSpace=wrap;html=1;" vertex="1" parent="1">
          <mxGeometry x="1280" y="320" width="160" height="80" as="geometry" />
        </mxCell>
        <mxCell id="mcsAyT45D13i0M1cORAj-52" value="" style="endArrow=none;html=1;rounded=0;entryX=0.5;entryY=1;entryDx=0;entryDy=0;" edge="1" parent="1" source="mcsAyT45D13i0M1cORAj-51" target="mcsAyT45D13i0M1cORAj-6">
          <mxGeometry width="50" height="50" relative="1" as="geometry">
            <mxPoint x="1350" y="550" as="sourcePoint" />
            <mxPoint x="1400" y="500" as="targetPoint" />
          </mxGeometry>
        </mxCell>
        <mxCell id="mcsAyT45D13i0M1cORAj-53" value="" style="endArrow=none;html=1;rounded=0;entryX=0.5;entryY=1;entryDx=0;entryDy=0;exitX=0.5;exitY=0;exitDx=0;exitDy=0;" edge="1" parent="1" source="mcsAyT45D13i0M1cORAj-3" target="mcsAyT45D13i0M1cORAj-51">
          <mxGeometry width="50" height="50" relative="1" as="geometry">
            <mxPoint x="1350" y="550" as="sourcePoint" />
            <mxPoint x="1400" y="500" as="targetPoint" />
          </mxGeometry>
        </mxCell>
        <mxCell id="mcsAyT45D13i0M1cORAj-54" value="Б:1" style="text;html=1;strokeColor=none;fillColor=none;align=center;verticalAlign=middle;whiteSpace=wrap;rounded=0;" vertex="1" parent="1">
          <mxGeometry x="1360" y="420" width="60" height="30" as="geometry" />
        </mxCell>
        <mxCell id="mcsAyT45D13i0M1cORAj-55" value="1:Б" style="text;html=1;strokeColor=none;fillColor=none;align=center;verticalAlign=middle;whiteSpace=wrap;rounded=0;" vertex="1" parent="1">
          <mxGeometry x="1360" y="290" width="60" height="30" as="geometry" />
        </mxCell>
      </root>
    </mxGraphModel>
  </diagram>
</mxfile>
